<?xml version="1.0" encoding="utf-8"?>
<!-- Generator: Adobe Illustrator 23.0.6, SVG Export Plug-In . SVG Version: 6.00 Build 0)  -->
<svg version="1.1" id="Layer_1" xmlns="http://www.w3.org/2000/svg" xmlns:xlink="http://www.w3.org/1999/xlink" x="0px" y="0px"
	 viewBox="0 0 1440 1440" style="enable-background:new 0 0 1440 1440;" xml:space="preserve">
<style type="text/css">
	.st0{display:none;fill:url(#SVGID_1_);}
	.st1{fill:#F2F2F2;}
</style>
<linearGradient id="SVGID_1_" gradientUnits="userSpaceOnUse" x1="1440" y1="719.3571" x2="0.6543" y2="719.3571">
	<stop  offset="0" style="stop-color:#30D5C7"/>
	<stop  offset="1" style="stop-color:#008081"/>
</linearGradient>
<rect x="0.7" y="-0.3" class="st0" width="1439.3" height="1439.3"/>
<g>
	<g id="XMLID_3_">
		<polygon class="st1" points="1032.3,647.7 1094.4,829.7 1069.3,829.7 1067.2,823.5 1045,754.1 1017.7,668.6 1017.7,668.5 
			1017.7,668.5 1017.2,668.5 990.8,752.3 990.2,754.1 990.2,754.1 966.5,829.3 966.4,829.7 942.1,829.7 1003.9,647.7 		"/>
		<path class="st1" d="M859,724.9l71,104.8h-27.8l-59.9-89.4l0,0l-9.7-14.4c2.6-3.5,5.1-6.8,7.5-10l55.6-68.3h29.2L859,724.9z"/>
		<polygon class="st1" points="825,735.5 825,760.3 824.9,760.3 824.9,829.7 801.4,829.7 801.4,647.7 824.9,647.7 824.9,735.5 		"/>
		<path class="st1" d="M756.6,653.7l-6.5,19.2c-5.9-3.2-18.1-8.6-34.6-8.6c-24.8,0-34.3,14.9-34.3,27.3c0,17,11.1,25.4,36.2,35.1
			c30.8,11.9,46.5,26.7,46.5,53.5c0,28.1-20.8,52.4-63.7,52.4c-17.6,0-36.7-5.1-46.4-11.6l5.9-19.7c10.5,6.5,25.9,11.9,42.1,11.9
			c24,0,38.1-12.7,38.1-31c0-17-9.7-26.7-34.3-36.2c-29.7-10.5-48.1-25.9-48.1-51.6c0-28.4,23.5-49.4,58.9-49.4
			C735,644.7,748.5,649.1,756.6,653.7z"/>
		<path class="st1" d="M620,662.3c0.3,8.1-5.7,14.6-15.1,14.6c-8.4,0-14.3-6.5-14.3-14.6c0-8.4,6.2-14.8,14.8-14.8
			C614.3,647.5,620,653.9,620,662.3z"/>
		<rect x="593.5" y="699" class="st1" width="23.8" height="130.7"/>
	</g>
	<g>
		<path class="st1" d="M620.4,662c0.3,8.1-5.7,14.6-15.1,14.6c-8.4,0-14.3-6.5-14.3-14.6c0-8.4,6.2-14.9,14.9-14.9
			C614.8,647.1,620.4,653.6,620.4,662z M594,829.4V698.7h23.8v130.7H594z"/>
		<path class="st1" d="M1127,829.4v-182h25.7l58.3,92.1c13.5,21.3,24,40.5,32.7,59.1l0.5-0.3c-2.2-24.3-2.7-46.4-2.7-74.8v-76.1
			h22.1v182h-23.8L1182,737c-12.7-20.3-24.8-41-34-60.8l-0.8,0.3c1.4,23,1.9,44.8,1.9,75.1v77.8H1127z"/>
	</g>
</g>
<g>
	<g id="XMLID_4_">
		<path class="st1" d="M357.2,781.9c0,19.9-16.1,36-36,36s-36-16.1-36-36v-0.1c0-39.8-32.2-72-72-72h-0.1c-19.9,0-36-16.1-36-36
			c0-19.9,16.1-36,36-36h0.1c39.7,0,72-32.2,72-71.9v-0.1c0-19.8,16.1-35.9,36-35.9c19.9,0,36,16.1,36,36s-16.1,36-36,36
			c-39.8,0-72,32.2-72,72c0,39.8,32.2,72,72,72C341,745.9,357.2,762,357.2,781.9z"/>
	</g>
</g>
<g>
	<g id="XMLID_5_">
		<path class="st1" d="M501.2,781.8c0,19.9-16.1,36-36,36h-0.1c-39.8,0-72,32.2-72,72v0.1c0,19.9-16.1,36-36,36s-36-16.1-36-36
			c0-19.9,16.1-36,36-36c39.8,0,72-32.2,72-72c0-39.8-32.2-72-72-72c-19.9,0-36-16.1-36-36c0-19.9,16.1-36,36-36
			c19.8,0,36,16.1,36,35.9v0.1c0,39.7,32.3,71.9,72,71.9h0.1C485,745.8,501.2,761.9,501.2,781.8z"/>
	</g>
</g>
</svg>
