<?xml version="1.0" encoding="utf-8"?>
<!-- Generator: Adobe Illustrator 23.0.6, SVG Export Plug-In . SVG Version: 6.00 Build 0)  -->
<svg version="1.1" id="Layer_1" xmlns="http://www.w3.org/2000/svg" xmlns:xlink="http://www.w3.org/1999/xlink" x="0px" y="0px"
	 viewBox="0 0 1001.8 723.8" style="enable-background:new 0 0 1001.8 723.8;" xml:space="preserve">
<style type="text/css">
	.st0{opacity:0.1;fill:#2FD4C6;enable-background:new    ;}
	.st1{opacity:0.1;}
	.st2{fill:none;stroke:#535461;stroke-width:2;stroke-miterlimit:10;}
	.st3{fill:#2FD4C6;}
	.st4{opacity:0.25;enable-background:new    ;}
	.st5{fill:#3F3D56;}
	.st6{fill:#FFB6B6;}
	.st7{fill:#2F2E41;}
	.st8{fill:#F0F0F0;}
	.st9{fill:#FFFFFF;}
	.st10{fill:#E4E4E4;}
	.st11{fill:#EFD30B;}
	.st12{fill:#9E616A;}
	.st13{fill:#E6E6E6;}
	.st14{opacity:0.2;enable-background:new    ;}
</style>
<g>
	<path class="st0" d="M12.2,392c15.9,67.7,49.4,126.1,102.3,154.5c110.1,58.9,358.3,28.5,543.6-6.4
		c93.7-17.6,178.6-66.2,241.2-137.9L12.2,392z"/>
	<path class="st0" d="M983.7,73.5H882.1c-4.8,0-8.8-3.9-8.8-8.8c0-4.8,3.9-8.8,8.8-8.8h17.6c-4.8,0-8.8-3.9-8.8-8.8s3.9-8.8,8.8-8.8
		h-12.6c-4.8,0-8.8-3.9-8.8-8.8s3.9-8.8,8.8-8.8h53.1c-11.8-5.5-25.5-9.4-41.4-11.4C754.1-9.1,702.4,3.2,684.2,15.9
		c-22.5,15.6-47.6,27.1-74.3,32.6c-89.3,18.4-256.2,40.6-407.5-7.1C127.2,17.7,71.3,57.7,37.8,124.6h963.6
		c-1.3-19.4-5-37.4-11.9-53.1C987.8,72.7,985.8,73.5,983.7,73.5z"/>
	<path class="st0" d="M3.6,250.7c-3.9,39.4-2.6,79.1,3.9,118.1L900,401.4c24.8-28.5,45.7-60.4,62-94.6L3.6,250.7z M356.6,335H339
		c4.8,0,8.8,3.9,8.8,8.8s-3.9,8.8-8.8,8.8H237.3c-4.8,0-8.8-3.9-8.8-8.8c0-4.8,3.9-8.8,8.8-8.8h17.6c-4.8,0-8.8-3.9-8.8-8.8
		c0-4.8,3.9-8.8,8.8-8.8l0,0h-12.6c-4.8,0-8.8-3.9-8.8-8.8c0-4.8,3.9-8.8,8.8-8.8l0,0H344c4.8,0,8.8,3.9,8.8,8.8
		c0,4.8-3.9,8.8-8.8,8.8h12.6c4.8,0,8.8,3.9,8.8,8.8C365.4,331,361.4,335,356.6,335z"/>
	<path class="st0" d="M1001.4,125.1L27,148.8C15.2,179.2,7.3,213.7,3.7,249.4h980.6c6.4-21,11.1-42.4,14.1-64.1
		C1001.4,164.3,1002.6,144,1001.4,125.1z M201.6,202.7H184c4.8,0,8.8,3.9,8.8,8.8c0,4.8-3.9,8.8-8.8,8.8H82.3
		c-4.8,0-8.8-3.9-8.8-8.8c0-4.8,3.9-8.8,8.8-8.8h17.6c-4.8,0-8.8-3.9-8.8-8.8c0-4.8,3.9-8.8,8.8-8.8H87.3c-4.8,0-8.8-3.9-8.8-8.8
		c0-4.8,3.9-8.8,8.8-8.8H189c4.8,0,8.8,3.9,8.8,8.8c0,4.8-3.9,8.8-8.8,8.8h12.6c4.8,0,8.8,3.9,8.8,8.8
		C210.3,198.8,206.4,202.7,201.6,202.7z"/>
	<g class="st1">
		<path class="st2" d="M619.2,568.3c0,0,25.7-63.4,73.8-86.9c20.2-9.8,36.8-25.7,47.1-45.7c4.8-9.5,8.8-19.4,11.8-29.6"/>
		<path class="st3" d="M782,391.1c-5,6.3-30.9,15.5-30.9,15.5s3.1-27.4,8.1-33.7c5.4-6,14.6-6.5,20.6-1.1
			C785.4,376.9,786.3,385.1,782,391.1L782,391.1z"/>
		<path class="st3" d="M773.2,441c-7.7,2.6-34.4-3.8-34.4-3.8s17.5-21.2,25.1-23.8c7.8-2.1,15.8,2.6,17.9,10.4
			C783.6,430.8,779.9,438.1,773.2,441z"/>
		<path class="st3" d="M724.9,499.9c-7.8-1.6-27.7-20.6-27.7-20.6s25.8-9.5,33.7-7.8c7.8,2.2,12.3,10.2,10.1,18
			C739.1,496.3,732.2,500.9,724.9,499.9L724.9,499.9z"/>
		<path class="st3" d="M678.4,536.2c-8-0.3-30.8-15.7-30.8-15.7s23.8-13.7,31.8-13.5c8-0.3,14.8,6.1,15,14.1c0.3,8-6.1,14.8-14.1,15
			C679.7,536.3,679.1,536.3,678.4,536.2z"/>
		<path class="st3" d="M713.9,419.4c1,8,18.4,29.3,18.4,29.3s11.5-25,10.5-32.9c-1.6-7.9-9.2-13-17.1-11.5
			C718.5,405.5,713.4,412,713.9,419.4z"/>
		<path class="st3" d="M660.1,462.5c3.4,7.3,26.4,22.3,26.4,22.3s3.5-27.3,0.1-34.6c-2.9-7.5-11.3-11.3-18.9-8.4
			c-7.5,2.9-11.3,11.3-8.4,18.9C659.5,461.4,659.7,462,660.1,462.5L660.1,462.5z"/>
		<path class="st3" d="M613.5,511.7c2.1,7.8,22.2,26.5,22.2,26.5s8-26.3,5.9-34c-2.6-7.7-10.9-11.7-18.5-9.1
			C616.1,497.4,612,504.5,613.5,511.7L613.5,511.7z"/>
		<path class="st4" d="M782,391.1c-5,6.3-30.9,15.5-30.9,15.5s3.1-27.4,8.1-33.7c5.4-6,14.6-6.5,20.6-1.1
			C785.4,376.9,786.3,385.1,782,391.1L782,391.1z"/>
		<path class="st4" d="M773.2,441c-7.7,2.6-34.4-3.8-34.4-3.8s17.5-21.2,25.1-23.8c7.8-2.1,15.8,2.6,17.9,10.4
			C783.6,430.8,779.9,438.1,773.2,441z"/>
		<path class="st4" d="M724.9,499.9c-7.8-1.6-27.7-20.6-27.7-20.6s25.8-9.5,33.7-7.8c7.8,2.2,12.3,10.2,10.1,18
			C739.1,496.3,732.2,500.9,724.9,499.9L724.9,499.9z"/>
		<path class="st4" d="M678.4,536.2c-8-0.3-30.8-15.7-30.8-15.7s23.8-13.7,31.8-13.5c8-0.3,14.8,6.1,15,14.1c0.3,8-6.1,14.8-14.1,15
			C679.7,536.3,679.1,536.3,678.4,536.2z"/>
		<path class="st4" d="M713.9,419.4c1,8,18.4,29.3,18.4,29.3s11.5-25,10.5-32.9c-1.6-7.9-9.2-13-17.1-11.5
			C718.5,405.5,713.4,412,713.9,419.4z"/>
		<path class="st4" d="M660.1,462.5c3.4,7.3,26.4,22.3,26.4,22.3s3.5-27.3,0.1-34.6c-2.9-7.5-11.3-11.3-18.9-8.4
			c-7.5,2.9-11.3,11.3-8.4,18.9C659.5,461.4,659.7,462,660.1,462.5L660.1,462.5z"/>
		<path class="st4" d="M613.5,511.7c2.1,7.8,22.2,26.5,22.2,26.5s8-26.3,5.9-34c-2.6-7.7-10.9-11.7-18.5-9.1
			C616.1,497.4,612,504.5,613.5,511.7L613.5,511.7z"/>
	</g>
	<g class="st1">
		<path class="st2" d="M601,475.6c0,0,3.3-68.3,40.8-106.4c15.8-15.9,26.1-36.5,29.2-58.7c1.4-10.6,1.8-21.2,1.3-31.8"/>
		<path class="st3" d="M695.8,254.5c-2.6,7.6-24,24.9-24,24.9s-6.1-26.8-3.5-34.4c2.1-7.8,10.1-12.4,17.9-10.3
			c7.8,2.1,12.4,10.1,10.3,17.9C696.4,253.2,696.1,253.8,695.8,254.5z"/>
		<path class="st3" d="M704,304.5c-6.4,4.9-33.7,7.8-33.7,7.8s9.4-25.8,15.8-30.7c6-5.4,15.2-4.8,20.6,1.2c5.4,6,4.8,15.2-1.2,20.6
			C705,303.6,704.5,304.1,704,304.5z"/>
		<path class="st3" d="M678.1,376c-7.9,1.1-33-10.3-33-10.3s21.2-17.5,29.2-18.6c7.9-1.6,15.6,3.6,17.1,11.4
			c1.6,7.9-3.6,15.6-11.4,17.1C679.3,375.9,678.7,376,678.1,376L678.1,376z"/>
		<path class="st3" d="M646.2,425.7c-7.7,2.4-34.3-4.6-34.3-4.6s17.9-20.9,25.6-23.3c7.8-1.9,15.7,2.9,17.6,10.8
			C656.9,415.8,653.1,423.1,646.2,425.7L646.2,425.7z"/>
		<path class="st3" d="M640.9,303.7c3.6,7.2,27.1,21.4,27.1,21.4s2.6-27.4-1.1-34.6c-4.1-6.9-13-9.3-20-5.2
			C640.6,289.1,638,297,640.9,303.7L640.9,303.7z"/>
		<path class="st3" d="M604.5,362.4c5.6,5.7,32.3,12.4,32.3,12.4s-5.7-26.9-11.4-32.6c-5.9-5.4-15.2-5-20.6,1
			C599.8,348.5,599.6,356.8,604.5,362.4L604.5,362.4z"/>
		<path class="st3" d="M576.8,424.2c4.6,6.7,29.7,17.7,29.7,17.7s-1.2-27.4-5.7-34.1c-5-6.3-14.2-7.3-20.5-2.3
			C574.6,410,573.2,417.9,576.8,424.2L576.8,424.2z"/>
	</g>
</g>
<path class="st5" d="M638,715.2L471.3,414.9c-0.1-1.5-0.9-2.9-2.2-3.6c-0.7-0.4-1.6-0.6-2.4-0.6h-0.1h-0.1c-2.4-0.1-4.4,1.7-4.6,4
	L285.4,715.2c-1.2,2.2-0.5,4.9,1.6,6.1c2.2,1.2,4.9,0.5,6.1-1.6l0,0l173.3-295l163.8,295c1.2,2.2,4,2.9,6.1,1.7
	C638.5,720.2,639.2,717.4,638,715.2C638,715.3,638,715.3,638,715.2z"/>
<polygon class="st6" points="439.1,663.7 457.9,659.4 450.2,584.7 422.4,591.1 "/>
<path class="st7" d="M453.6,627.6l-26.8,6.2l-8.6-16.7l-0.5-0.6c-3.8-4.7-5.9-10.4-6-16.5l-22.2-59l-1.8-0.9
	c-5.5-2.6-7.8-9.2-5.2-14.6c0.2-0.4,0.4-0.8,0.7-1.2l-2.4-6.3l-66.6,0.1h-0.1l-81.6-22.8l8.6-51.1l23,14.4
	c7.6-0.5,137.3-8.5,149.3,20.6c10.6,25.9,26.1,70.2,37.1,102.7c0.6,1.5,1.2,2.9,2.1,4.2c1.7,2.7,2.7,5.7,2.9,8.9
	c0.1,1.4,0.4,2.7,0.8,4.1c4.6,13.7-2.4,28.4-2.5,28.5H453.6z"/>
<path class="st7" d="M432.7,657.5l6.2-1.4l21.7-15.2l15,6.8l0,0c15.1-3.5,30.1,6,33.5,21l0.2,0.9l-70.2,16.1L432.7,657.5z"/>
<path class="st8" d="M154.7,659.2c1.9-20.8,14.1-41.7,33.7-49.1c-7.2,21.6-6.4,45.1,2.1,66.2c3.3,8.2,7.9,16.8,5.3,25.2
	c-1.6,5.2-5.9,9.3-10.6,11.9c-4.8,2.6-10.1,4-15.4,5.3l-1,0.9C159.6,700.7,152.8,680,154.7,659.2z"/>
<path class="st9" d="M188.6,610.4c-11.1,13.3-17.7,29.8-19,47c-0.3,3.7-0.1,7.5,0.8,11c0.9,3.5,2.8,6.7,5.4,9.3
	c2.4,2.4,5.1,4.7,6.8,7.6c1.8,3.1,2.1,6.8,0.9,10.1c-1.3,4.2-4.1,7.7-6.9,10.9c-3.1,3.7-6.4,7.4-7.6,12.1c-0.1,0.6-1,0.3-0.9-0.3
	c2.1-8.3,10-13.1,13.4-20.7c1.7-3.5,2.3-7.6,0.5-11.1c-1.6-3.1-4.4-5.4-6.8-7.9c-2.6-2.5-4.5-5.5-5.6-8.9c-1-3.6-1.4-7.3-1.2-11
	c0.4-8.4,2.1-16.6,5.1-24.5c3.3-9,8.2-17.3,14.3-24.7C188.3,609.3,188.9,610,188.6,610.4L188.6,610.4z"/>
<path class="st9" d="M169.6,651.9c-6-1.2-10.1-6.6-9.9-12.6c0-0.3,0.2-0.5,0.5-0.4c0.2,0,0.4,0.2,0.4,0.5
	c-0.3,5.7,3.6,10.6,9.2,11.7C170.5,651.1,170.2,652,169.6,651.9L169.6,651.9z"/>
<path class="st9" d="M177.9,626.2c2.2,0.9,4.7,0.7,6.7-0.6c0.5-0.3,0.9,0.5,0.4,0.8c-2.2,1.4-5,1.7-7.4,0.6
	c-0.2-0.1-0.4-0.3-0.3-0.6C177.4,626.3,177.6,626.2,177.9,626.2L177.9,626.2z"/>
<path class="st8" d="M249.9,645.1c-0.3,0.2-0.6,0.4-0.9,0.6c-4.1,2.9-8,6.1-11.4,9.6c-0.3,0.3-0.6,0.5-0.8,0.8
	c-8.5,8.6-15.3,18.5-20.2,29.6c-1.9,4.4-3.5,9-4.8,13.5c-1.7,6.4-3.1,13.4-6.7,18.7c-0.4,0.6-0.8,1.1-1.2,1.6l-34.1,1.1
	c-0.1,0-0.2-0.1-0.2-0.1l-1.4,0.1c0-0.2,0.1-0.5,0.1-0.7c0-0.1,0.1-0.3,0.1-0.4c0-0.1,0-0.2,0.1-0.3v-0.1c0-0.1,0-0.2,0-0.2
	c0.3-1.4,0.6-2.8,0.9-4.2l0,0c2.3-10.7,5.9-21.1,10.6-31c0.1-0.3,0.3-0.6,0.5-0.9c2.2-4.4,4.8-8.6,7.7-12.5c1.6-2.2,3.3-4.3,5.1-6.3
	c4.7-5.2,10.1-9.5,16.1-12.9c12-6.9,26.1-9.8,39.3-6.3C249.2,645,249.5,645,249.9,645.1z"/>
<path class="st9" d="M249.8,645.6c-16.9,3.9-32,13-43.5,26.1c-2.5,2.8-4.6,5.9-6.1,9.4c-1.4,3.4-1.8,7.1-1.3,10.6
	c0.4,3.4,1.2,6.8,0.8,10.1c-0.5,3.5-2.4,6.7-5.4,8.7c-3.6,2.6-7.9,3.7-12,4.6c-4.7,1.1-9.6,2.1-13.3,5.2c-0.5,0.4-1-0.4-0.6-0.7
	c6.7-5.4,15.8-4.6,23.2-8.4c3.4-1.8,6.4-4.7,7.1-8.6c0.6-3.5-0.2-7-0.7-10.3c-0.6-3.5-0.3-7.1,0.9-10.4c1.4-3.5,3.3-6.7,5.7-9.6
	c5.4-6.5,11.6-12,18.8-16.5c8.1-5.2,16.9-8.9,26.3-11C250.3,644.5,250.4,645.4,249.8,645.6L249.8,645.6z"/>
<path class="st9" d="M209.8,667.3c-4-4.6-4.1-11.3-0.2-16c0.4-0.5,1.1,0.1,0.7,0.6c-3.6,4.4-3.5,10.6,0.2,14.9
	C210.9,667.2,210.2,667.7,209.8,667.3z"/>
<path class="st9" d="M198.6,690c6,0.5,11.9-1.4,16.6-5.1c0.5-0.4,1,0.4,0.6,0.7c-4.9,3.9-11,5.8-17.3,5.3
	C197.9,690.8,198,689.9,198.6,690L198.6,690z"/>
<path class="st9" d="M231.7,651.8c1.2,2.1,3.3,3.4,5.6,3.6c0.6,0,0.5,1-0.1,0.9c-2.6-0.2-4.9-1.7-6.3-3.9c-0.1-0.2-0.1-0.5,0.1-0.6
	C231.3,651.6,231.6,651.6,231.7,651.8L231.7,651.8z"/>
<path class="st8" d="M712.5,659.2c-1.9-20.8-14.1-41.7-33.7-49.1c7.2,21.6,6.4,45.1-2.1,66.2c-3.3,8.2-7.9,16.8-5.3,25.2
	c1.6,5.2,5.9,9.3,10.6,11.9c4.8,2.6,10.1,4,15.4,5.3l1,0.9C707.6,700.7,714.5,680,712.5,659.2z"/>
<path class="st9" d="M678.7,610.4c11.1,13.3,17.7,29.8,19,47c0.3,3.7,0.1,7.5-0.8,11c-0.9,3.5-2.8,6.7-5.4,9.3
	c-2.4,2.4-5.1,4.7-6.8,7.6c-1.8,3.1-2.1,6.8-0.9,10.1c1.3,4.2,4.1,7.7,6.9,10.9c3.1,3.7,6.4,7.4,7.6,12.1c0.1,0.6,1,0.3,0.9-0.3
	c-2.1-8.3-10-13.1-13.4-20.7c-1.7-3.5-2.3-7.6-0.5-11.1c1.6-3.1,4.4-5.4,6.8-7.9c2.6-2.5,4.5-5.5,5.6-8.9c1-3.6,1.4-7.3,1.2-11
	c-0.4-8.4-2.1-16.6-5.1-24.5c-3.3-9-8.2-17.3-14.3-24.7C678.9,609.3,678.3,610,678.7,610.4L678.7,610.4z"/>
<path class="st9" d="M697.6,651.9c6-1.2,10.1-6.6,9.9-12.6c0-0.3-0.2-0.5-0.5-0.4c-0.2,0-0.4,0.2-0.4,0.5c0.3,5.7-3.6,10.6-9.2,11.7
	C696.7,651.1,697,652,697.6,651.9z"/>
<path class="st8" d="M617.3,645.1c0.3,0.2,0.6,0.4,0.9,0.6c4.1,2.9,8,6.1,11.4,9.6c0.3,0.3,0.6,0.5,0.8,0.8
	c8.5,8.6,15.3,18.5,20.2,29.6c1.9,4.4,3.5,9,4.8,13.5c1.7,6.4,3.1,13.4,6.7,18.7c0.4,0.6,0.8,1.1,1.2,1.6l34.1,1.1
	c0.1,0,0.2-0.1,0.2-0.1l1.4,0.1c0-0.2-0.1-0.5-0.1-0.7c0-0.1-0.1-0.3-0.1-0.4c0-0.1,0-0.2-0.1-0.3v-0.1c0-0.1,0-0.2,0-0.2
	c-0.3-1.4-0.6-2.8-0.9-4.2l0,0c-2.3-10.7-5.9-21.1-10.6-31c-0.1-0.3-0.3-0.6-0.5-0.9c-2.2-4.4-4.8-8.6-7.7-12.5
	c-1.6-2.2-3.3-4.3-5.1-6.3c-4.7-5.2-10.1-9.5-16.1-12.9c-12-6.9-26.1-9.8-39.3-6.3C618,645,617.7,645,617.3,645.1z"/>
<path class="st9" d="M617.4,645.6c16.9,3.9,32,13,43.5,26.1c2.5,2.8,4.6,5.9,6.1,9.4c1.4,3.4,1.8,7.1,1.3,10.6
	c-0.4,3.4-1.2,6.8-0.8,10.1c0.5,3.5,2.4,6.7,5.4,8.7c3.6,2.6,7.9,3.7,12,4.6c4.7,1.1,9.6,2.1,13.3,5.2c0.5,0.4,1-0.4,0.6-0.7
	c-6.7-5.4-15.8-4.6-23.2-8.4c-3.4-1.8-6.4-4.7-7.1-8.6c-0.6-3.5,0.2-7,0.7-10.3c0.6-3.5,0.3-7.1-0.9-10.4c-1.4-3.5-3.3-6.7-5.7-9.6
	c-5.4-6.5-11.6-12-18.8-16.5c-8.1-5.2-16.9-8.9-26.3-11C616.9,644.5,616.8,645.4,617.4,645.6L617.4,645.6z"/>
<path class="st9" d="M657.4,667.3c4-4.6,4.1-11.3,0.2-16c-0.4-0.5-1.1,0.1-0.7,0.6c3.6,4.4,3.5,10.6-0.2,14.9
	C656.3,667.2,657.1,667.7,657.4,667.3z"/>
<path class="st9" d="M668.6,690c-6,0.5-11.9-1.4-16.6-5.1c-0.5-0.4-1,0.4-0.6,0.7c4.9,3.9,11,5.8,17.3,5.3
	C669.4,690.8,669.2,689.9,668.6,690L668.6,690z"/>
<path class="st5" d="M948.4,722.3c0,0.7-0.5,1.2-1.2,1.2H60.3c-0.7,0-1.2-0.5-1.2-1.2s0.5-1.2,1.2-1.2h886.9
	C947.8,721.3,948.4,721.7,948.4,722.3z"/>
<circle class="st5" cx="630.3" cy="259.8" r="4.5"/>
<path class="st10" d="M574.3,294.4l60.4-37.9c2.2-1.4,5.2-0.7,6.6,1.5c1.4,2.2,0.7,5.2-1.5,6.6c-0.1,0.1-0.2,0.1-0.4,0.2l-63.6,32.3
	c-0.8,0.4-1.7,0.1-2.1-0.7C573.3,295.7,573.6,294.8,574.3,294.4L574.3,294.4z"/>
<path class="st11" d="M453.2,376c-1-1.5-1-3.4,0.1-4.8c1-1.4,2.4-2.5,4-3.1c3.2-1.7,6.7-2.8,10.2-3.3c2.7-0.4,5.7-0.5,7.9-2.3
	c2.1-1.8,3.3-5.1,6-5.3c2.6-0.3,4.7,2.6,7.3,2.8c3.3,0.2,5.4-3.6,8.6-4.4c2.1-0.5,4.3,0.4,6.3,1.3l11.9,5.4l6.1,2.8
	c2.1,1,4.6,2.3,5,4.6c0.6,3.2-3,5.4-6,6.6c-21.6,8-45.3,8-66.8,0"/>
<ellipse class="st5" cx="471.1" cy="412.1" rx="156.7" ry="22.4"/>
<path class="st5" d="M681.6,550.9h107.5c5,0,9,4,9,9l0,0c0,5-4,9-9,9H681.6c-5,0-9-4-9-9l0,0C672.6,554.9,676.6,550.9,681.6,550.9z"
	/>
<path class="st5" d="M841.2,391.2l-35.5,168.7l9.3,43.2l17.4,81.4v36.6c0,0.1,0,0.1,0,0.2c0,0.8-0.2,1.6-0.4,2.4h-14
	c-0.3-0.8-0.4-1.6-0.4-2.4c0,0,0-0.1,0-0.2v-35l-15.8-73.9l-3.2-14.9l-6.2-29l-1.8-8.4l0,0l1.8-8.4l1.4-6.5l33-156.8
	c0.8-4.1,4.8-6.7,8.9-5.8C839.4,383.2,842,387.2,841.2,391.2L841.2,391.2L841.2,391.2z"/>
<path class="st5" d="M689,559.8V721c0,0.1,0,0.1,0,0.2c0,0.8-0.2,1.6-0.4,2.4h-14c-0.3-0.8-0.4-1.6-0.4-2.4c0,0,0-0.1,0-0.2V559.8
	c0-4.1,3.4-7.5,7.5-7.5C685.8,552.4,689,555.8,689,559.8z"/>
<path class="st5" d="M699.5,533h71.6c14.8,0,26.9,12,26.9,26.9l0,0l0,0H672.6l0,0l0,0C672.6,545,684.7,533,699.5,533z"/>
<path class="st5" d="M807,612.1H681.6c-4.1,0-7.5-3.4-7.5-7.5s3.4-7.5,7.5-7.5H807c4.1,0,7.5,3.4,7.5,7.5
	C814.4,608.7,811.1,612.1,807,612.1z"/>
<path class="st5" d="M350.2,569.1H223.7c-5,0-9-4-9-9v-2.6c0-5,4-9,9-9h126.5c5,0,9,4,9,9v2.7C359.2,565,355.2,569.1,350.2,569.1z"
	/>
<path class="st5" d="M222.4,558.9l-2.3,9.5l-8.4,34.5l-3.6,14.9l-16.8,69.3v30.1c0,1.5-0.4,2.9-1.3,4.2c-0.6,1-1.5,1.8-2.6,2.4h-7.3
	c-1-0.6-1.9-1.4-2.6-2.4c-0.8-1.2-1.3-2.7-1.3-4.2v-31.8l18.7-76.9l12-49.7L166,364.5c-0.9-4.1,1.7-8,5.8-8.9s8,1.7,8.9,5.8l0,0
	l37.8,179.5l1.8,8.3L222.4,558.9L222.4,558.9L222.4,558.9z"/>
<path class="st5" d="M356.4,558.8v158.3c0,1.5-0.4,2.9-1.3,4.2c-0.6,1-1.5,1.8-2.6,2.4h-7.4c-1-0.6-1.9-1.4-2.6-2.4
	c-0.8-1.2-1.3-2.7-1.3-4.2V558.8c0-4.1,3.4-7.5,7.5-7.5C352.8,551.3,356.4,554.7,356.4,558.8z"/>
<path class="st5" d="M359.2,558.8H214.8l0,0v-4.1c0-14.8,12-26.9,26.9-26.9h90.7c14.8,0,26.9,12,26.9,26.9L359.2,558.8L359.2,558.8z
	"/>
<path class="st5" d="M348.8,617.8H204.5c-4.1,0-7.5-3.4-7.5-7.5s3.4-7.5,7.5-7.5h144.4c4.1,0,7.5,3.4,7.5,7.5S353,617.8,348.8,617.8
	z"/>
<polygon class="st12" points="534.4,682.9 518.8,675.4 540.3,609.8 563.5,620.8 "/>
<polygon class="st12" points="640.7,677 623.9,681.1 599.4,616.6 624.4,610.4 "/>
<path class="st12" d="M576.1,398c4.7,7.6,14.5,10.1,22.2,5.6c0.7-0.5,1.5-1,2.1-1.5l49.6,28.5l-2.2-29.3L601,378.7
	c-5.3-5.3-13.3-6.3-19.8-2.6c-7.5,4.5-9.9,14.1-5.4,21.5C575.9,397.7,576,397.9,576.1,398z"/>
<path class="st13" d="M628.6,419.7l8.8,5.4l39.4,24c10.8,6.8,25.2,3.5,31.9-7.4l0,0c2.9-4.8,4-10.5,2.9-16l-17.5-87.5
	c-2.5-13.1-15.1-21.8-28.4-19.3c-1.2,0.2-2.4,0.5-3.5,0.9c-11.5,4.1-17.9,16.3-14.5,28.1l18.3,62l-28.1-13L628.6,419.7z"/>
<path class="st7" d="M607.8,658.9l-27-54.1v-0.1l2.7-99.3c0-0.9,0.1-1.8,0.2-2.7c1-8.1,5.1-15.3,11.4-20.3c6.2-4.8,13.9-7,21.7-5.9
	l77.2,10l2.7-10.9l0.5-0.2l73.9-27.1l0.4,0.7c9.7,15.7,16.4,47.3,18.3,56.5v0.1c0,0.2,0.1,0.3,0.1,0.4c3.8,15.8-11.9,42-27.6,46
	c-33,8.5-62.5,1.9-96.7-5.8c-12.2-2.7-24.9-5.6-38.9-8l0.4,8.3c0.3,6.4,1.7,12.5,3.9,18.5c2.5,7.3,4.5,13,0.3,25.1l-2,5.8
	c2.1,5.9,1.4,12.3-2,17.5l-0.4,0.6l17.8,45.1L607.8,658.9z"/>
<path class="st7" d="M563.6,635l-32.1-3l11.4-36.4c2.4-23.8,8.3-47.2,17.6-69.2l15.5-36.8c0-0.8,0.1-1.7,0.2-2.5
	c1-8.1,5.1-15.3,11.4-20.3c6.2-4.8,13.9-7,21.7-5.9l77,10l3.4-28.2l73.9-9.9l0.3,0.6c12.9,21,21.1,37.5,25.9,51.8
	c0.2,0.7,0.4,1.5,0.6,2.2c3.9,15.9-5.8,32-21.3,36c-39.7,10.1-87.6,9.9-150.4-0.9l-30.4,72c-2.9,6.9-6.5,13.5-10.7,19.7L563.6,635z"
	/>
<ellipse class="st12" cx="675.8" cy="231.5" rx="37.3" ry="38.1"/>
<path class="st10" d="M686.6,472.1l-5.4-19.2l-1.3-9.5l-7.7,0.3l-15.1-34.8l-5.9-9.2c-1.2-1.3-2.3-2.5-3.3-3.6
	c-6.1-6.9-11-14.8-14.5-23.3c-2.5-6.2-3.9-12.6-4.3-19.2c-1.1-19.5,7.1-40,25.1-63c-0.3-0.8-0.5-1.7-0.6-2.5
	c-0.7-5.8,3.5-11,9.3-11.7l17.3-2c2.7-0.3,5.5,0.5,7.6,2.2c2.2,1.8,3.7,4.4,3.9,7.3c0.2,2.2-0.2,4.4-1.2,6.3
	c18,2.3,33,14.9,38.4,32.3c10.3,19.4,18.6,39.8,24.7,60.9c1.2,4.2,0.7,8.4,0.1,12.5c-0.5,3.8-1,7.8-0.1,11.6c0.8,4,2.9,8,5,12.2
	c2.4,4.9,5,9.9,5.7,15v0.4L686.6,472.1z"/>
<path class="st14" d="M634,372.5c3.5,8.5,8.4,16.3,14.4,23.2c1,1.2,2.1,2.5,3.3,3.7l5.9,9.3c21.7-16.3,39.3-80.5,39.3-80.5
	l-24.6-4.8L634,372.5z"/>
<path class="st12" d="M619.1,273.2c4.5,7.7,2,17.5-5.6,22.2c-0.7,0.4-1.5,0.8-2.3,1.2l1.7,57.1l-24.8-15.6l2.3-51.8
	c-2.2-7.1,0.7-14.7,7.1-18.7c7.4-4.5,17-2.1,21.5,5.3C619,273,619.1,273.1,619.1,273.2z"/>
<path class="st13" d="M615.2,332.1l-27.3,3.9l1.2,56.3c0.1,8.2,4.5,15.7,11.5,19.9l0,0c8.7,5.1,19.7,3.9,27-3.1l64.3-61.8
	c9.4-8.9,10.1-23.6,1.8-33.4l0,0c-8.3-9.8-22.8-10.9-32.5-2.8c-0.2,0.2-0.4,0.3-0.5,0.5c-0.6,0.6-1.2,1.2-1.8,1.8l-42.4,48.8
	L615.2,332.1z"/>
<polygon class="st6" points="387.5,699.8 406.8,699.8 416.1,625.2 387.5,625.2 "/>
<ellipse class="st6" cx="278.1" cy="232.1" rx="38.5" ry="38.5"/>
<path class="st7" d="M413.2,676.8h-27.4l-7-9.4l-1.9-8.9l-1.6-1.6c-4.6-4.4-5.5-11.2-2.3-16.7l-19.8-92.5
	c-5.2-0.5-63.8-5.7-104.5-12.9c-10.4-1.9-18.5-6.9-24.2-15c-13.8-20-7.9-52.4-7.9-52.7l0.1-0.4h0.4l95.1-10.6l0.1,0.1
	c3.2,1.5,77.4,36.7,89.6,48.9c5.5,5.5,17.7,38,20.4,72.6c0.5,6.2-1.3,12.5-3,18.6c-1.6,5.7-3.3,11.6-2.9,17.2
	c0.5,8.7,1,17.6,1.4,26.9c0.1,1.5,1.2,3,2.3,4.5c1.1,1.5,2.2,3,2.3,4.5c0.7,14.7-9,27.1-9.1,27.2L413.2,676.8z"/>
<path class="st6" d="M419.4,334.9c-7.9-2.1-15.9,2.5-18,10.2c-0.2,0.8-0.4,1.7-0.5,2.6l-32,10.1l1.3,21l45.1-14.7
	c8.2,0.2,14.9-6.3,15.1-14.4C430.5,342.7,425.9,336.7,419.4,334.9L419.4,334.9z"/>
<path class="st3" d="M398.5,369.6l-24,9.1l-0.6,1.2c-3.1,6-10.3,8.3-16.3,5.2l0,0l-53.7,20.4c0,0-24.1-24.1-41.1-45.5l5.9-35.8
	c1.4-8.4,4.2-16.3,8.5-23.6c35.1,7.7,55.2,56.7,55.2,56.7l63.3-12L398.5,369.6z"/>
<path class="st7" d="M272.6,268.7c-9.7,2.6-20.3-0.9-27.9-7.5c-7.6-6.6-12.2-15.9-14.9-25.5c-2-7.1-2.9-14.8,0.2-21.5
	s11.5-11,18.1-7.8c-4-4.7-2-12.4,2.7-16.4s11.1-5.2,17.3-5.8c9-0.9,18.1-1,26.6,1.9s16.2,9.2,18.8,17.7c5.6,2.6,12.2,1.1,16.1-3.7
	c1,5.5-1.8,10.8-6.8,13.2l13-4.2c2.2,4.8-1.7,10.5-6.7,12.1s-10.4-0.1-15.1-2.3s-9.4-5-14.5-5.8c-5.2-0.8-11.2,0.8-13.6,5.5
	c-1.3,2.4-1.3,5.3-2.1,8c-0.8,2.7-2.6,5.4-5.3,5.6c-1.7,0.1-3.4-0.8-5.2-0.6c-2.1,0.2-3.8,2.2-4.4,4.3c-0.4,2.1-0.4,4.3,0,6.4
	l3.3,25.2"/>
<path class="st3" d="M224.7,524.5L224.7,524.5l-0.3-0.1l-0.1-0.3c-1.1-3.7-2.5-7.6-3.9-11.2c-2-5.1-3.7-10.3-5.1-15.6
	c-1.1-5.1-1.8-10.2-2.3-15.4c-0.4-3.8-0.8-7.7-1.5-11.4c-0.3-1.7,0.8-3.3,1.9-4.9c1-1.5,2-2.8,1.8-4.1c-0.2-1.3-1.7-2.8-3.1-4.2
	c-1.6-1.5-3.2-3.1-3.4-4.8c-3.1-22.8-4.6-45.8-4.3-68.9c0.3-31.8,1.8-53.5,4.3-64.5c6.8-29.5,38-34.8,43-35.5
	c2.1-5.6,8.4-8.5,13.9-6.4c0.2,0.1,0.5,0.2,0.7,0.3l22.2,10.1c9.2,4.2,16.1,11.9,19.2,21.5l3.3,10.1l1.7,67.6l-9.2,47.6l17.9,26.9
	C226.2,513.8,225.1,524.5,224.7,524.5z"/>
<path class="st7" d="M377.2,692.2h6.3l24.5-10l13.1,10l0,0c15.4,0,28,12.5,28,28v0.9h-71.9L377.2,692.2z"/>
<path class="st6" d="M427.4,383.1c-7-4.1-16-1.8-20.1,5.3c-0.4,0.7-0.8,1.5-1.1,2.4l-33.5,1.3l-4.5,15.6l47.7,2.5
	c7.9,2.3,16-2.2,18.3-10C436.1,393.6,433.3,386.5,427.4,383.1z"/>
<path class="st3" d="M399.9,411.7l-34.4-0.4l-4.4-0.1l-70.1-0.9c0,0-19-18.1-35.6-36.8l2.3-16.8c2.3-16.5,10.4-31.6,23-42.5
	c23.8,15.8,37.5,47.3,37.5,47.3l23.1,10.3l0,0c16.2,0.7,32,5.4,46.2,13.5l7.6,4.4L399.9,411.7z"/>
<path class="st7" d="M653,708.7l-11.4,2.8l-4.7-10.3l-2.6,12.1l-30.4,7.5c-3.8,0.9-7.6-1.4-8.6-5.2c-0.6-2.3,0-4.6,1.6-6.4
	l20.1-22.8l-2.7-10.9l25.9-4.8L653,708.7z"/>
<path class="st7" d="M531.6,712.3l-10.9-4.5l2.3-11.1l-9.3,8.3l-29-11.7c-3.6-1.5-5.4-5.6-3.9-9.2c0.9-2.2,2.8-3.7,5-4.2l29.7-6.6
	l4.3-10.4l23.8,11.4L531.6,712.3z"/>
<path class="st10" d="M493.5,408.1h-9c-20,0-36.3-16.3-36.3-36.3v-0.5h81.6v0.5C529.8,391.8,513.6,408.1,493.5,408.1z"/>
<path class="st5" d="M484.6,358.3c0,2.5-4.5,4.5-4.5,4.5s-4.5-2-4.5-4.5s4.5-4.5,4.5-4.5S484.6,355.9,484.6,358.3z"/>
<path class="st5" d="M511.4,358.3c0,2.5-4.5,4.5-4.5,4.5s-4.5-2-4.5-4.5s4.5-4.5,4.5-4.5S511.4,355.9,511.4,358.3z"/>
<path class="st5" d="M493.5,367.3c0,2.5-4.5,4.5-4.5,4.5s-4.5-2-4.5-4.5s4.5-4.5,4.5-4.5S493.5,364.8,493.5,367.3z"/>
<circle class="st5" cx="462.2" cy="344.4" r="4.5"/>
<path class="st10" d="M397.1,334.8l70.7,9.8c2.6,0.4,4.5,2.8,4.1,5.4s-2.8,4.5-5.4,4.1c-0.1,0-0.3,0-0.4-0.1l-69.5-16.1
	c-0.8-0.2-1.3-1-1.2-1.9C395.5,335.2,396.3,334.7,397.1,334.8L397.1,334.8z"/>
<path class="st7" d="M775.5,215c-6.4-7.4-9.4-17.2-14.4-25.6s-13.9-15.9-23.2-13.9c-6.5,1.4-11.3,7-13.9,13.3
	c-2.5,6.3-3,13.2-3.4,20.1c0.2-14-9.1-27.7-21.8-32.1c-12.7-4.5-28,0.5-35.9,11.7c-7.3-6.7-18.3-7-25.8-0.5
	c-7.2,6.4-8.8,18.6-3.5,26.7c5.3,8.1,16.6,11.1,25,6.7l3,2.7c-1.7,5.8,1.6,12.7,7,14.9c4.4,1.8,10.6,1.5,12.2,6.1
	c1.2,3.2-1,6.7-3.3,9.2c-2.3,2.5-5,5.1-5.3,8.5c-0.4,5.2,5,8.8,9.8,9.9c11.7,2.6,24.7-2.8,31.4-13.1c0.1-0.2,0.3-0.4,0.4-0.6
	c7.7-9.8,10.9-22.3,9.1-34.6c-0.4-2.4,0-4.2,1.7-4.8c7.2-2.5,27.1,2.7,33.1,7.4s10.8,10.7,16.7,15.7c5.8,5,13.2,8.8,20.6,7.4
	c5.9-1.1,10.9-5.4,14.3-10.5c3.4-5.2,5.4-11.2,7.1-17.2C803.5,229.8,785.6,226.6,775.5,215z"/>
</svg>
