<?xml version="1.0" encoding="utf-8"?>
<!-- Generator: Adobe Illustrator 23.0.6, SVG Export Plug-In . SVG Version: 6.00 Build 0)  -->
<svg version="1.1" id="Layer_1" xmlns="http://www.w3.org/2000/svg" xmlns:xlink="http://www.w3.org/1999/xlink" x="0px" y="0px"
	 viewBox="0 0 999.9 724.9" style="enable-background:new 0 0 999.9 724.9;" xml:space="preserve">
<style type="text/css">
	.st0{opacity:0.1;fill:#2FD4C6;enable-background:new    ;}
	.st1{opacity:0.1;}
	.st2{fill:none;stroke:#535461;stroke-width:2;stroke-miterlimit:10;}
	.st3{fill:#2FD4C6;}
	.st4{opacity:0.25;enable-background:new    ;}
	.st5{fill:#535461;}
	.st6{fill:#F5F5F7;}
	.st7{fill:#EAEAF3;}
	.st8{fill:#E8E8E8;}
</style>
<title>android</title>
<g>
	<path class="st0" d="M10.5,392.8c15.9,67.7,49.4,126.1,102.3,154.5c110.1,58.9,358.3,28.5,543.6-6.4
		C750.1,523.3,835,474.7,897.6,403L10.5,392.8z"/>
	<path class="st0" d="M982,74.3H880.4c-4.8,0-8.8-3.9-8.8-8.8c0-4.8,3.9-8.8,8.8-8.8H898c-4.8,0-8.8-3.9-8.8-8.8s3.9-8.8,8.8-8.8
		h-12.6c-4.8,0-8.8-3.9-8.8-8.8s3.9-8.8,8.8-8.8h53.1c-11.8-5.5-25.5-9.4-41.4-11.4C752.4-8.3,700.7,4,682.5,16.7
		c-22.5,15.6-47.6,27.1-74.3,32.6C518.9,67.7,352,89.9,200.7,42.2C125.5,18.5,69.6,58.5,36.1,125.4h963.6
		c-1.3-19.4-5-37.4-11.9-53.1C986.1,73.5,984.1,74.3,982,74.3z"/>
	<path class="st0" d="M1.9,251.5c-3.9,39.4-2.6,79.1,3.9,118.1l892.5,32.6c24.8-28.5,45.7-60.4,62-94.6L1.9,251.5z M354.9,335.8
		h-17.6c4.8,0,8.8,3.9,8.8,8.8s-3.9,8.8-8.8,8.8H235.6c-4.8,0-8.8-3.9-8.8-8.8c0-4.8,3.9-8.8,8.8-8.8h17.6c-4.8,0-8.8-3.9-8.8-8.8
		c0-4.8,3.9-8.8,8.8-8.8l0,0h-12.6c-4.8,0-8.8-3.9-8.8-8.8c0-4.8,3.9-8.8,8.8-8.8l0,0h101.7c4.8,0,8.8,3.9,8.8,8.8
		c0,4.8-3.9,8.8-8.8,8.8h12.6c4.8,0,8.8,3.9,8.8,8.8C363.7,331.8,359.7,335.8,354.9,335.8z"/>
	<path class="st0" d="M999.7,125.9L25.3,149.6C13.5,180,5.6,214.5,2,250.2h980.6c6.4-21,11.1-42.4,14.1-64.1
		C999.7,165.1,1000.9,144.8,999.7,125.9z M199.9,203.5h-17.6c4.8,0,8.8,3.9,8.8,8.8c0,4.8-3.9,8.8-8.8,8.8H80.6
		c-4.8,0-8.8-3.9-8.8-8.8c0-4.8,3.9-8.8,8.8-8.8h17.6c-4.8,0-8.8-3.9-8.8-8.8c0-4.8,3.9-8.8,8.8-8.8H85.6c-4.8,0-8.8-3.9-8.8-8.8
		c0-4.8,3.9-8.8,8.8-8.8h101.7c4.8,0,8.8,3.9,8.8,8.8c0,4.8-3.9,8.8-8.8,8.8h12.6c4.8,0,8.8,3.9,8.8,8.8
		C208.6,199.6,204.7,203.5,199.9,203.5z"/>
	<g class="st1">
		<path class="st2" d="M617.5,569.1c0,0,25.7-63.4,73.8-86.9c20.2-9.8,36.8-25.7,47.1-45.7c4.8-9.5,8.8-19.4,11.8-29.6"/>
		<path class="st3" d="M780.3,391.9c-5,6.3-30.9,15.5-30.9,15.5s3.1-27.4,8.1-33.7c5.4-6,14.6-6.5,20.6-1.1
			C783.7,377.7,784.6,385.9,780.3,391.9L780.3,391.9z"/>
		<path class="st3" d="M771.5,441.8c-7.7,2.6-34.4-3.8-34.4-3.8s17.5-21.2,25.1-23.8c7.8-2.1,15.8,2.6,17.9,10.4
			C781.9,431.6,778.2,438.9,771.5,441.8z"/>
		<path class="st3" d="M723.2,500.7c-7.8-1.6-27.7-20.6-27.7-20.6s25.8-9.5,33.7-7.8c7.8,2.2,12.3,10.2,10.1,18
			C737.4,497.1,730.5,501.7,723.2,500.7L723.2,500.7z"/>
		<path class="st3" d="M676.7,537c-8-0.3-30.8-15.7-30.8-15.7s23.8-13.7,31.8-13.5c8-0.3,14.8,6.1,15,14.1c0.3,8-6.1,14.8-14.1,15
			C678,537.1,677.4,537.1,676.7,537z"/>
		<path class="st3" d="M712.2,420.2c1,8,18.4,29.3,18.4,29.3s11.5-25,10.5-32.9c-1.6-7.9-9.2-13-17.1-11.5
			C716.8,406.3,711.7,412.8,712.2,420.2z"/>
		<path class="st3" d="M658.4,463.3c3.4,7.3,26.4,22.3,26.4,22.3s3.5-27.3,0.1-34.6c-2.9-7.5-11.3-11.3-18.9-8.4
			c-7.5,2.9-11.3,11.3-8.4,18.9C657.8,462.2,658,462.8,658.4,463.3L658.4,463.3z"/>
		<path class="st3" d="M611.8,512.5c2.1,7.8,22.2,26.5,22.2,26.5s8-26.3,5.9-34c-2.6-7.7-10.9-11.7-18.5-9.1
			C614.4,498.2,610.3,505.3,611.8,512.5L611.8,512.5z"/>
		<path class="st4" d="M780.3,391.9c-5,6.3-30.9,15.5-30.9,15.5s3.1-27.4,8.1-33.7c5.4-6,14.6-6.5,20.6-1.1
			C783.7,377.7,784.6,385.9,780.3,391.9L780.3,391.9z"/>
		<path class="st4" d="M771.5,441.8c-7.7,2.6-34.4-3.8-34.4-3.8s17.5-21.2,25.1-23.8c7.8-2.1,15.8,2.6,17.9,10.4
			C781.9,431.6,778.2,438.9,771.5,441.8z"/>
		<path class="st4" d="M723.2,500.7c-7.8-1.6-27.7-20.6-27.7-20.6s25.8-9.5,33.7-7.8c7.8,2.2,12.3,10.2,10.1,18
			C737.4,497.1,730.5,501.7,723.2,500.7L723.2,500.7z"/>
		<path class="st4" d="M676.7,537c-8-0.3-30.8-15.7-30.8-15.7s23.8-13.7,31.8-13.5c8-0.3,14.8,6.1,15,14.1c0.3,8-6.1,14.8-14.1,15
			C678,537.1,677.4,537.1,676.7,537z"/>
		<path class="st4" d="M712.2,420.2c1,8,18.4,29.3,18.4,29.3s11.5-25,10.5-32.9c-1.6-7.9-9.2-13-17.1-11.5
			C716.8,406.3,711.7,412.8,712.2,420.2z"/>
		<path class="st4" d="M658.4,463.3c3.4,7.3,26.4,22.3,26.4,22.3s3.5-27.3,0.1-34.6c-2.9-7.5-11.3-11.3-18.9-8.4
			c-7.5,2.9-11.3,11.3-8.4,18.9C657.8,462.2,658,462.8,658.4,463.3L658.4,463.3z"/>
		<path class="st4" d="M611.8,512.5c2.1,7.8,22.2,26.5,22.2,26.5s8-26.3,5.9-34c-2.6-7.7-10.9-11.7-18.5-9.1
			C614.4,498.2,610.3,505.3,611.8,512.5L611.8,512.5z"/>
	</g>
	<g class="st1">
		<path class="st2" d="M599.3,476.4c0,0,3.3-68.3,40.8-106.4c15.8-15.9,26.1-36.5,29.2-58.7c1.4-10.6,1.8-21.2,1.3-31.8"/>
		<path class="st3" d="M694.1,255.3c-2.6,7.6-24,24.9-24,24.9s-6.1-26.8-3.5-34.4c2.1-7.8,10.1-12.4,17.9-10.3
			c7.8,2.1,12.4,10.1,10.3,17.9C694.7,254,694.4,254.6,694.1,255.3z"/>
		<path class="st3" d="M702.3,305.3c-6.4,4.9-33.7,7.8-33.7,7.8s9.4-25.8,15.8-30.7c6-5.4,15.2-4.8,20.6,1.2
			c5.4,6,4.8,15.2-1.2,20.6C703.3,304.4,702.8,304.9,702.3,305.3z"/>
		<path class="st3" d="M676.4,376.8c-7.9,1.1-33-10.3-33-10.3s21.2-17.5,29.2-18.6c7.9-1.6,15.6,3.6,17.1,11.4
			c1.6,7.9-3.6,15.6-11.4,17.1C677.6,376.7,677,376.8,676.4,376.8L676.4,376.8z"/>
		<path class="st3" d="M644.5,426.5c-7.7,2.4-34.3-4.6-34.3-4.6s17.9-20.9,25.6-23.3c7.8-1.9,15.7,2.9,17.6,10.8
			C655.2,416.6,651.4,423.9,644.5,426.5L644.5,426.5z"/>
		<path class="st3" d="M639.2,304.5c3.6,7.2,27.1,21.4,27.1,21.4s2.6-27.4-1.1-34.6c-4.1-6.9-13-9.3-20-5.2
			C638.9,289.9,636.3,297.8,639.2,304.5L639.2,304.5z"/>
		<path class="st3" d="M602.8,363.2c5.6,5.7,32.3,12.4,32.3,12.4s-5.7-26.9-11.4-32.6c-5.9-5.4-15.2-5-20.6,1
			C598.1,349.3,597.9,357.6,602.8,363.2L602.8,363.2z"/>
		<path class="st3" d="M575.1,425c4.6,6.7,29.7,17.7,29.7,17.7s-1.2-27.4-5.7-34.1c-5-6.3-14.2-7.3-20.5-2.3
			C572.9,410.8,571.5,418.7,575.1,425L575.1,425z"/>
	</g>
</g>
<g>
	<path class="st0" d="M289.4,697.1c35.8,12,79.6,4.7,120.3,5.6c5.6,0.1,11.5,0.5,16,2.6s6.7,5.5,9.8,8.4
		c11.4,10.8,34.7,14.2,55.2,12.4c20.4-1.8,39.1-7.8,58.4-12.5c33.3-7.9,71.4-11.6,104.2-2.9c3,0.8,6.2,1.7,9.4,1.4
		c7.2-0.7,9.4-6.5,14.4-9.8c9.1-5.9,28.8-4.4,32.8-12.1c2.4-4.6-3-9.3-8.9-12.4c-22.4-12-54.5-14-84-12.1c-29.5,1.8-58.3,6.9-87.8,7
		c-36.8,0-72.3-7.8-108.8-11c-25.3-2.2-52.8-1.9-76.4,4.6C318.3,673.1,312.7,689,289.4,697.1z"/>
	<rect x="347.6" y="160.1" class="st5" width="6.4" height="90.3"/>
	<rect x="347.6" y="281.4" class="st5" width="6.4" height="51.1"/>
	<path class="st5" d="M396.9,69.8h201.4c23.7,0,43,19.2,43,43v537.9c0,23.7-19.2,43-43,43H396.9c-23.7,0-43-19.2-43-43V112.8
		C354,89,373.2,69.8,396.9,69.8z"/>
	<path class="st3" d="M396.3,99h201.4c23.7,0,43,19.2,43,43v482.2c0,23.7-19.2,43-43,43H396.3c-23.7,0-43-19.2-43-43V141.9
		C353.3,118.2,372.5,99,396.3,99z"/>
	<path class="st6" d="M596.4,493.6H397.1c-17.2,0-31.2-14-31.2-31.2V263.1c0-17.2,14-31.2,31.2-31.2h199.2c17.2,0,31.2,14,31.2,31.2
		v199.2C627.6,479.6,613.6,493.6,596.4,493.6z"/>
	<path class="st7" d="M477.6,83.5h41c1.7,0,3.2,1.5,3.2,3.2l0,0c0,1.7-1.5,3.2-3.2,3.2h-41c-1.7,0-3.2-1.5-3.2-3.2l0,0
		C474.4,84.9,475.8,83.5,477.6,83.5z"/>
	<circle class="st7" cx="538.2" cy="87.1" r="4.6"/>
	<path class="st8" d="M469.8,287.4c8.9,0,16.1,7.2,16.1,16.1v32.3c0,8.9-7.2,16.1-16.1,16.1h-32.3c-8.9,0-16.1-7.2-16.1-16.1v-32.3
		c0-8.9,7.2-16.1,16.1-16.1H469.8z M464.4,308.9h-21.5v21.5h21.5V308.9z M469.8,373.5c8.9,0,16.1,7.2,16.1,16.1v32.3
		c0,8.9-7.2,16.1-16.1,16.1h-32.3c-8.9,0-16.1-7.2-16.1-16.1v-32.3c0-8.9,7.2-16.1,16.1-16.1H469.8L469.8,373.5z M464.4,395h-21.5
		v21.5h21.5V395z M507.5,303.4c0-8.9,7.2-16.1,16.1-16.1h32.3c8.9,0,16.1,7.2,16.1,16.1v32.3c0,8.9-7.2,16.1-16.1,16.1h-32.3
		c-8.9,0-16.1-7.2-16.1-16.1V303.4L507.5,303.4z M529,330.4h21.5v-21.5H529V330.4z M539.8,427.3h10.8v10.8h-10.8V427.3z M572.1,438
		h-10.7v-10.8h10.8L572.1,438L572.1,438z M561.4,373.5h10.8v43h-32.3v-10.7h-10.8v32.3h-21.5v-64.7h32.3v10.8h21.5V373.5z"/>
</g>
</svg>
