<?xml version="1.0" encoding="utf-8"?>
<!-- Generator: Adobe Illustrator 23.0.6, SVG Export Plug-In . SVG Version: 6.00 Build 0)  -->
<svg version="1.1" id="Layer_1" xmlns="http://www.w3.org/2000/svg" xmlns:xlink="http://www.w3.org/1999/xlink" x="0px" y="0px"
	 viewBox="0 0 1001 725" style="enable-background:new 0 0 1001 725;" xml:space="preserve">
<style type="text/css">
	.st0{opacity:0.1;fill:#2FD4C6;enable-background:new    ;}
	.st1{opacity:0.1;}
	.st2{fill:none;stroke:#535461;stroke-width:2;stroke-miterlimit:10;}
	.st3{fill:#2FD4C6;}
	.st4{opacity:0.25;enable-background:new    ;}
	.st5{fill:#F0F0F0;}
	.st6{fill:#FFFFFF;}
	.st7{fill:#CACACA;}
	.st8{fill:#CCCCCC;}
	.st9{fill:#A0616A;}
	.st10{fill:#2F2E41;}
	.st11{fill:#3F3D56;}
</style>
<g>
	<path class="st0" d="M11.8,393.9C27.7,461.6,61.2,520,114.1,548.4c110.1,58.9,358.3,28.5,543.6-6.4
		c93.7-17.6,178.6-66.2,241.2-137.9L11.8,393.9z"/>
	<path class="st0" d="M983.3,75.4H881.7c-4.8,0-8.8-3.9-8.8-8.8c0-4.8,3.9-8.8,8.8-8.8h17.6c-4.8,0-8.8-3.9-8.8-8.8s3.9-8.8,8.8-8.8
		h-12.6c-4.8,0-8.8-3.9-8.8-8.8s3.9-8.8,8.8-8.8h53.1c-11.8-5.5-25.5-9.4-41.4-11.4C753.7-7.2,702,5.1,683.8,17.8
		c-22.5,15.6-47.6,27.1-74.3,32.6C520.2,68.8,353.3,91,202,43.3C126.8,19.6,70.9,59.6,37.4,126.5H1001c-1.3-19.4-5-37.4-11.9-53.1
		C987.4,74.6,985.4,75.4,983.3,75.4z"/>
	<path class="st0" d="M3.2,252.6c-3.9,39.4-2.6,79.1,3.9,118.1l892.5,32.6c24.8-28.5,45.7-60.4,62-94.6L3.2,252.6z M356.2,336.9
		h-17.6c4.8,0,8.8,3.9,8.8,8.8s-3.9,8.8-8.8,8.8H236.9c-4.8,0-8.8-3.9-8.8-8.8c0-4.8,3.9-8.8,8.8-8.8h17.6c-4.8,0-8.8-3.9-8.8-8.8
		c0-4.8,3.9-8.8,8.8-8.8l0,0h-12.6c-4.8,0-8.8-3.9-8.8-8.8c0-4.8,3.9-8.8,8.8-8.8l0,0h101.7c4.8,0,8.8,3.9,8.8,8.8
		c0,4.8-3.9,8.8-8.8,8.8h12.6c4.8,0,8.8,3.9,8.8,8.8C365,332.9,361,336.9,356.2,336.9z"/>
	<path class="st0" d="M1001,127L26.6,150.7C14.8,181.1,6.9,215.6,3.3,251.3h980.6c6.4-21,11.1-42.4,14.1-64.1
		C1001,166.2,1002.2,145.9,1001,127z M201.2,204.6h-17.6c4.8,0,8.8,3.9,8.8,8.8c0,4.8-3.9,8.8-8.8,8.8H81.9c-4.8,0-8.8-3.9-8.8-8.8
		c0-4.8,3.9-8.8,8.8-8.8h17.6c-4.8,0-8.8-3.9-8.8-8.8c0-4.8,3.9-8.8,8.8-8.8H86.9c-4.8,0-8.8-3.9-8.8-8.8c0-4.8,3.9-8.8,8.8-8.8
		h101.7c4.8,0,8.8,3.9,8.8,8.8c0,4.8-3.9,8.8-8.8,8.8h12.6c4.8,0,8.8,3.9,8.8,8.8C209.9,200.7,206,204.6,201.2,204.6z"/>
	<g class="st1">
		<path class="st2" d="M618.8,570.2c0,0,25.7-63.4,73.8-86.9c20.2-9.8,36.8-25.7,47.1-45.7c4.8-9.5,8.8-19.4,11.8-29.6"/>
		<path class="st3" d="M781.6,393c-5,6.3-30.9,15.5-30.9,15.5s3.1-27.4,8.1-33.7c5.4-6,14.6-6.5,20.6-1.1
			C785,378.8,785.9,387,781.6,393L781.6,393z"/>
		<path class="st3" d="M772.8,442.9c-7.7,2.6-34.4-3.8-34.4-3.8s17.5-21.2,25.1-23.8c7.8-2.1,15.8,2.6,17.9,10.4
			C783.2,432.7,779.5,440,772.8,442.9z"/>
		<path class="st3" d="M724.5,501.8c-7.8-1.6-27.7-20.6-27.7-20.6s25.8-9.5,33.7-7.8c7.8,2.2,12.3,10.2,10.1,18
			C738.7,498.2,731.8,502.8,724.5,501.8L724.5,501.8z"/>
		<path class="st3" d="M678,538.1c-8-0.3-30.8-15.7-30.8-15.7s23.8-13.7,31.8-13.5c8-0.3,14.8,6.1,15,14.1c0.3,8-6.1,14.8-14.1,15
			C679.3,538.2,678.7,538.2,678,538.1z"/>
		<path class="st3" d="M713.5,421.3c1,8,18.4,29.3,18.4,29.3s11.5-25,10.5-32.9c-1.6-7.9-9.2-13-17.1-11.5
			C718.1,407.4,713,413.9,713.5,421.3z"/>
		<path class="st3" d="M659.7,464.4c3.4,7.3,26.4,22.3,26.4,22.3s3.5-27.3,0.1-34.6c-2.9-7.5-11.3-11.3-18.9-8.4
			c-7.5,2.9-11.3,11.3-8.4,18.9C659.1,463.3,659.3,463.9,659.7,464.4L659.7,464.4z"/>
		<path class="st3" d="M613.1,513.6c2.1,7.8,22.2,26.5,22.2,26.5s8-26.3,5.9-34c-2.6-7.7-10.9-11.7-18.5-9.1
			C615.7,499.3,611.6,506.4,613.1,513.6L613.1,513.6z"/>
		<path class="st4" d="M781.6,393c-5,6.3-30.9,15.5-30.9,15.5s3.1-27.4,8.1-33.7c5.4-6,14.6-6.5,20.6-1.1
			C785,378.8,785.9,387,781.6,393L781.6,393z"/>
		<path class="st4" d="M772.8,442.9c-7.7,2.6-34.4-3.8-34.4-3.8s17.5-21.2,25.1-23.8c7.8-2.1,15.8,2.6,17.9,10.4
			C783.2,432.7,779.5,440,772.8,442.9z"/>
		<path class="st4" d="M724.5,501.8c-7.8-1.6-27.7-20.6-27.7-20.6s25.8-9.5,33.7-7.8c7.8,2.2,12.3,10.2,10.1,18
			C738.7,498.2,731.8,502.8,724.5,501.8L724.5,501.8z"/>
		<path class="st4" d="M678,538.1c-8-0.3-30.8-15.7-30.8-15.7s23.8-13.7,31.8-13.5c8-0.3,14.8,6.1,15,14.1c0.3,8-6.1,14.8-14.1,15
			C679.3,538.2,678.7,538.2,678,538.1z"/>
		<path class="st4" d="M713.5,421.3c1,8,18.4,29.3,18.4,29.3s11.5-25,10.5-32.9c-1.6-7.9-9.2-13-17.1-11.5
			C718.1,407.4,713,413.9,713.5,421.3z"/>
		<path class="st4" d="M659.7,464.4c3.4,7.3,26.4,22.3,26.4,22.3s3.5-27.3,0.1-34.6c-2.9-7.5-11.3-11.3-18.9-8.4
			c-7.5,2.9-11.3,11.3-8.4,18.9C659.1,463.3,659.3,463.9,659.7,464.4L659.7,464.4z"/>
		<path class="st4" d="M613.1,513.6c2.1,7.8,22.2,26.5,22.2,26.5s8-26.3,5.9-34c-2.6-7.7-10.9-11.7-18.5-9.1
			C615.7,499.3,611.6,506.4,613.1,513.6L613.1,513.6z"/>
	</g>
	<g class="st1">
		<path class="st2" d="M600.6,477.5c0,0,3.3-68.3,40.8-106.4c15.8-15.9,26.1-36.5,29.2-58.7c1.4-10.6,1.8-21.2,1.3-31.8"/>
		<path class="st3" d="M695.4,256.4c-2.6,7.6-24,24.9-24,24.9s-6.1-26.8-3.5-34.4c2.1-7.8,10.1-12.4,17.9-10.3
			c7.8,2.1,12.4,10.1,10.3,17.9C696,255.1,695.7,255.7,695.4,256.4z"/>
		<path class="st3" d="M703.6,306.4c-6.4,4.9-33.7,7.8-33.7,7.8s9.4-25.8,15.8-30.7c6-5.4,15.2-4.8,20.6,1.2
			c5.4,6,4.8,15.2-1.2,20.6C704.6,305.5,704.1,306,703.6,306.4z"/>
		<path class="st3" d="M677.7,377.9c-7.9,1.1-33-10.3-33-10.3s21.2-17.5,29.2-18.6c7.9-1.6,15.6,3.6,17.1,11.4
			c1.6,7.9-3.6,15.6-11.4,17.1C678.9,377.8,678.3,377.9,677.7,377.9L677.7,377.9z"/>
		<path class="st3" d="M645.8,427.6c-7.7,2.4-34.3-4.6-34.3-4.6s17.9-20.9,25.6-23.3c7.8-1.9,15.7,2.9,17.6,10.8
			C656.5,417.7,652.7,425,645.8,427.6L645.8,427.6z"/>
		<path class="st3" d="M640.5,305.6c3.6,7.2,27.1,21.4,27.1,21.4s2.6-27.4-1.1-34.6c-4.1-6.9-13-9.3-20-5.2
			C640.2,291,637.6,298.9,640.5,305.6L640.5,305.6z"/>
		<path class="st3" d="M604.1,364.3c5.6,5.7,32.3,12.4,32.3,12.4s-5.7-26.9-11.4-32.6c-5.9-5.4-15.2-5-20.6,1
			C599.4,350.4,599.2,358.7,604.1,364.3L604.1,364.3z"/>
		<path class="st3" d="M576.4,426.1c4.6,6.7,29.7,17.7,29.7,17.7s-1.2-27.4-5.7-34.1c-5-6.3-14.2-7.3-20.5-2.3
			C574.2,411.9,572.8,419.8,576.4,426.1L576.4,426.1z"/>
	</g>
</g>
<g>
	<path class="st5" d="M956.9,650.2c-2.7,9.8-6.9,19.1-12.5,27.5c-12.5,18.9-30.3,33.3-50,44.8c-1.4,0.8-2.7,1.6-4.1,2.4h-13.8
		l-0.5-1.1l0,0l-0.6-1.3l-0.1-0.2v0.2l-0.5,2.4h-6.7c-0.6-0.8-1.1-1.6-1.7-2.4c-0.8-1.2-1.6-2.3-2.3-3.5c-1.3-2.1-2.4-4.3-3.4-6.5
		c-0.1-0.3-0.2-0.5-0.3-0.8l0.5-0.5L859,703l3.8-0.6l-4.1-12.7c0.2-0.5,0.3-0.9,0.5-1.4c2.3-5.8,6.7-10.2,11.8-13.9
		c5.3-3.8,11.5-6.8,17.1-10c2.7-1.5,5.3-3.1,7.8-4.7l0,0c3.3-2.1,6.4-4.4,9.5-6.8c0.1,0,0.1-0.1,0.2-0.1l0.1-0.1
		c13.7-10.7,25.4-23.9,34.3-38.9l0,0l0,0c0.3-0.5,0.6-1,0.9-1.4l0,0c3.7-6.3,6.8-12.9,9.4-19.7l0,0c0.2-0.5,0.4-1,0.6-1.5
		c0.3,0.4,0.5,0.9,0.8,1.3l0,0l0,0C961.4,609.9,962.3,630.8,956.9,650.2z"/>
	<path class="st6" d="M951.7,592.5c0.1,9.3-0.9,18.5-2.9,27.5c-0.9,4.1-2,8.2-3.4,12.2c-2.6,7.9-6,15.4-10.1,22.6
		c-0.2,0.4-0.5,0.8-0.7,1.2l0,0c-1.8,3-3.7,5.9-5.8,8.7c-3.1,4.4-7,8.3-11.4,11.5c-3.6,2.4-7.7,4-12,4.6c-0.8,0.2-1.6,0.3-2.5,0.4
		c-3.3,0.4-6.7,0.5-10,1.2c-1.7,0.3-3.3,0.8-4.8,1.5c-5.3,2.5-8.3,7.6-9.6,13.1c-0.2,1-0.4,1.9-0.5,2.9c-1.1,7.5,0.1,15.2-0.5,22.7
		c-0.1,0.8-0.2,1.6-0.3,2.4h-0.7l-0.5-1.1l0,0c0-0.4,0.1-0.8,0.1-1.3c0.2-3.7,0.3-7.3,0.1-11c0-1.7-0.1-3.3,0-5c0-1.3,0.1-2.7,0.2-4
		l0,0c0.1-0.8,0.2-1.6,0.3-2.4c0.3-2.5,0.9-4.9,1.8-7.3c1.8-4.9,5.5-8.8,10.3-10.7c1.5-0.5,2.9-1,4.5-1.3c3.3-0.6,6.8-0.8,10.2-1.2
		c0.4,0,0.7-0.1,1.1-0.2c0.4-0.1,0.9-0.2,1.3-0.2c4.4-0.8,8.6-2.6,12.2-5.3c4.3-3.4,8-7.4,11-11.9c1.6-2.3,3.2-4.8,4.6-7.2l0,0l0,0
		c0.1-0.1,0.1-0.2,0.2-0.3l0,0c6.2-10.6,10.8-22.2,13.5-34.2c0.1-0.4,0.2-0.9,0.3-1.3c1.9-8.7,2.8-17.5,2.7-26.4l0,0
		c0-0.4,0-0.8,0-1.3c0-0.9,1.3-1,1.3-0.2C951.6,591.7,951.7,592.1,951.7,592.5C951.6,592.5,951.7,592.5,951.7,592.5L951.7,592.5z"/>
	<path class="st6" d="M934,655.8c7.9,4,17.5,1.7,22.7-5.4c0.5-0.7-0.6-1.5-1.1-0.8c-4.8,6.6-13.8,8.8-21.1,5
		C933.8,654.2,933.3,655.4,934,655.8L934,655.8z"/>
	<path class="st6" d="M906,679.8c-2.8-8.3-2.3-17.3,1.2-25.3c0.4-0.8-0.9-1.3-1.2-0.5c-3.7,8.3-4.1,17.7-1.2,26.3
		C905,681.1,906.3,680.6,906,679.8z"/>
	<path class="st6" d="M948,619.2c-3.3-0.9-6-3.4-7-6.7c-0.3-0.8-1.5-0.3-1.2,0.5c1.2,3.6,4.1,6.4,7.8,7.4c0.3,0.1,0.7,0,0.9-0.4
		C948.5,619.8,948.4,619.4,948,619.2L948,619.2z"/>
	<path class="st5" d="M896,659.8L896,659.8c-0.3,7.2-1.2,14.3-2.7,21.3l0,0c-0.1,0.5-0.2,1-0.3,1.4c-2.4,10.8-5.8,21.4-10.1,31.6
		c-1.2,2.9-2.4,5.7-3.7,8.5c-0.4,0.8-0.7,1.6-1.1,2.4h-1.5l-0.5-1.1l0,0l-0.6-1.3l-0.1-0.2v0.2l-0.5,2.4h-14.3l-2.8-2.4l-4.1-3.5
		l5.7-6.2l0.9-1l0.1-0.2l0.5-0.5L859,703l3.8-0.6l-4.1-12.7l-2-6l-0.5-1.5l-2.9-8.8l-8.6,1.6l-1.4-4.9c2.6-6,4.7-12.1,6.4-18.4v-0.1
		c4.5-16.9,5.9-34.5,4-52l0,0c-0.1-0.6-0.1-1.1-0.2-1.7l0,0c-0.9-7.2-2.3-14.4-4.3-21.3c-0.1-0.5-0.3-1-0.5-1.6
		c0.5,0.2,0.9,0.4,1.4,0.6l0,0l0,0c0.7,0.3,1.5,0.7,2.2,1c17.1,8.3,29.6,23.8,36.7,41.8c0,0,0,0.1,0.1,0.1
		c3.7,9.4,5.9,19.3,6.6,29.4C896.1,651.9,896.1,655.8,896,659.8z"/>
	<path class="st6" d="M870,725h-1.6c-0.5-0.8-1-1.6-1.6-2.4c-0.9-1.2-1.7-2.4-2.7-3.5c-0.8-1-1.6-2-2.4-3c-0.8-1-1.6-2.1-2.4-3.1
		l0.9-1c0.2,0.2,0.3,0.4,0.5,0.6c2.6,3.4,5.3,6.6,7.7,10.1C869,723.4,869.5,724.2,870,725z"/>
	<path class="st6" d="M848.6,575.6c0.3,0.3,0.5,0.7,0.8,1c2,2.5,3.8,5.1,5.5,7.8c3.1,4.7,5.8,9.7,8.2,14.8c0.2,0.4,0.4,0.8,0.6,1.2
		c5.1,11.2,8.4,23.2,9.8,35.4c0,0.1,0,0.2,0,0.3c0.3,2.9,0.5,5.7,0.6,8.6c0.3,5.4-0.2,10.9-1.6,16.1c-0.2,0.7-0.4,1.4-0.7,2
		c-0.6,1.6-1.4,3.2-2.3,4.7c-0.6,1.1-1.4,2.1-2.1,3.1c-0.5,0.6-1,1.2-1.5,1.8c-0.3,0.3-0.6,0.7-0.9,1c-0.3,0.3-0.5,0.5-0.8,0.8
		c-2.7,2.6-5.7,5-8.1,7.9l0.5,1.5c2.3-3,5.4-5.5,8.1-8c1.7-1.6,3.3-3.4,4.7-5.3c0.2-0.3,0.4-0.5,0.5-0.8c0.9-1.4,1.7-2.8,2.4-4.3
		c0.3-0.8,0.7-1.5,0.9-2.3c1.6-5.2,2.4-10.6,2.2-16c0-3.5-0.2-6.9-0.6-10.4c0-0.4-0.1-0.9-0.2-1.3c-1-8.2-2.9-16.3-5.5-24.1
		c-3.4-9.9-8-19.4-13.8-28.2c-1.6-2.5-3.4-5-5.3-7.3c-0.2-0.3-0.5-0.7-0.8-1C849,574,848,574.9,848.6,575.6z"/>
	<path class="st6" d="M874.3,636.8c8.7-1.5,15-9.2,14.9-18c0-0.4-0.3-0.7-0.7-0.7s-0.6,0.3-0.7,0.6c0.1,8.2-5.8,15.3-13.9,16.7
		C873.1,635.6,873.5,636.9,874.3,636.8L874.3,636.8z"/>
	<path class="st6" d="M866.4,672.8c-7.2-4.9-12.3-12.4-14.2-20.9c-0.2-0.8-1.5-0.5-1.3,0.3c2,8.9,7.3,16.6,14.9,21.7
		C866.4,674.4,867.1,673.3,866.4,672.8z"/>
	<path class="st6" d="M863.5,599.1c-3.2,1.3-6.8,0.9-9.6-1.1c-0.7-0.5-1.4,0.7-0.7,1.2c3.1,2.1,7.1,2.6,10.6,1.2
		c0.4-0.1,0.6-0.5,0.5-0.8C864.2,599.3,863.9,599.1,863.5,599.1L863.5,599.1z"/>
	<path class="st7" d="M672.7,141.6H40.4c-0.6,0-1-0.5-1-1s0.4-1,1-1h632.3c0.6,0,1,0.5,1,1S673.3,141.6,672.7,141.6z"/>
	<path class="st8" d="M206.1,182.9h-28.4c-16,31.5-27.3,65.2-33.4,100h61.8c8.3,0,15-6.7,15-14.9c0,0,0,0,0-0.1v-70.1
		C221.1,189.7,214.4,182.9,206.1,182.9z"/>
	<path class="st8" d="M416.4,182.9H287.8c-8.3,0-15,6.7-15,15V268c0,8.3,6.7,15,15,15h128.6c8.3,0,15-6.7,15-15v-70.1
		C431.4,189.7,424.7,182.9,416.4,182.9z"/>
	<path class="st8" d="M626.7,182.9H498.1c-8.3,0-15,6.7-15,15V268c0,8.3,6.7,15,15,15h128.6c8.3,0,15-6.7,15-15v-70.1
		C641.7,189.7,635,182.9,626.7,182.9z"/>
	<path class="st8" d="M206.1,329.9h-67c-0.2,5.5-0.4,11.1-0.4,16.6c0,28.1,3.2,56.1,9.7,83.4h57.7c8.3,0,15-6.7,15-15v-70.1
		C221.1,336.7,214.4,329.9,206.1,329.9z"/>
	<path class="st8" d="M416.4,329.9H287.8c-8.3,0-15,6.7-15,15V415c0,8.3,6.7,15,15,15h128.6c8.3,0,15-6.7,15-15v-70.1
		C431.4,336.7,424.7,329.9,416.4,329.9z"/>
	<path class="st8" d="M626.7,329.9H498.1c-8.3,0-15,6.7-15,15V415c0,8.3,6.7,15,15,15h128.6c0.4,0,0.8,0,1.2-0.1
		c1.6-0.1,3.2-0.5,4.7-1.2c5.5-2.3,9-7.7,9.1-13.6v-70.2C641.7,336.7,635,329.9,626.7,329.9z"/>
	<circle class="st3" cx="208.8" cy="270" r="29.8"/>
	<path class="st6" d="M204.7,285.5c-1,0-2-0.5-2.6-1.3l-8.1-10.8c-1.1-1.5-0.8-3.5,0.7-4.6s3.5-0.8,4.6,0.7l0,0l5.3,7.1l13.6-20.5
		c1-1.5,3.1-1.9,4.6-0.9c1.5,1,1.9,3.1,0.9,4.6l0,0L207.5,284C206.9,284.9,205.9,285.4,204.7,285.5
		C204.8,285.5,204.7,285.5,204.7,285.5z"/>
	<circle class="st3" cx="425.8" cy="273" r="29.8"/>
	<path class="st6" d="M421.7,288.5c-1,0-2-0.5-2.6-1.3l-8.1-10.8c-1.1-1.5-0.8-3.5,0.7-4.6s3.5-0.8,4.6,0.7l5.3,7.1l13.6-20.5
		c1-1.5,3.1-1.9,4.6-0.9s1.9,3.1,0.9,4.6L424.5,287C423.9,287.9,422.9,288.4,421.7,288.5C421.8,288.5,421.7,288.5,421.7,288.5z"/>
	<path class="st9" d="M850.7,433.3l-9.3-90.2l-2.5-37.1l26.1-4.7c0,0,3.9,25.5,7.3,40.5c3.4,14.8-4.5,89.5-4.7,91.5
		c5.2,4.7,5.7,12.7,1,17.9c-4.7,5.2-12.7,5.7-17.9,1s-5.7-12.7-1-17.9C850.1,434,850.4,433.6,850.7,433.3L850.7,433.3z"/>
	<polygon class="st9" points="784,701.7 771.1,704.7 753.5,656.2 772.6,651.8 	"/>
	<path class="st10" d="M786.3,696.7l-3.3,0.8l-0.3,0.1l-15.1-2.5l-0.4-0.1l-6.3,7.5c-9,2.1-14.6,11-12.5,19.9v0.1l0.1,0.4l1.9-0.4
		l39.8-9.1L786.3,696.7z"/>
	<polygon class="st9" points="861.1,710.2 847.8,710.2 841.5,659 861.1,659 	"/>
	<path class="st10" d="M860.7,705.8l-1.2-0.5l-13-5.3l-0.4-0.2l-7.8,5.9c-9.2,0-16.6,7.4-16.7,16.6l0,0v0.5h36.6h6.2v-17.2
		L860.7,705.8z"/>
	<path class="st10" d="M840.9,436.4l11.2,106c0,0,14.9,106.1,12.1,120.8s0.7,16.7,0.7,16.7l-25.4-1.8c0,0,0.7-9.1-3.5-13.2
		s-2.1-16.7-2.1-16.7l-49.4-172.6l-30,90.6c0,0,18.9,73.5,18.2,74.9s12,32,12,32l-28.4,9.4c0,0,3.5-11.2-1.4-14.6s-9.1-0.7-4.9-7
		s-33-52.4-32.1-82.1c0.2-8.9,0.5-18.5,0.9-28.3c1.9-52,5.5-110.5,12-114C742.6,430.1,840.9,436.4,840.9,436.4z"/>
	<circle class="st9" cx="788.1" cy="194.3" r="27.4"/>
	<path class="st3" d="M879.7,361.9l-37.3,9.5l0.3-10.5l-2.8-3l-5.7-29.6l-6-76.6l20.6,10.9l0,0c3.6,4,6.6,8.4,8.9,13.2
		c7.8,15.8,15.2,50.5,19.1,70.7c0.1,0.4,0.4,0.8,0.7,1.1C881.6,351.3,882.5,357.3,879.7,361.9L879.7,361.9z"/>
	<path class="st9" d="M659.5,395.9c0,0,51.4-54.2,51.9-55.2c3.6-27.3,13.9-39.3,15.5-38l26.7,9.2c0,0-7.9,25.1-13.3,40
		c-5.1,14.3-64.3,49.1-65.3,50.8c2.9,6.4,0.1,13.9-6.3,16.8c-6.4,2.9-13.9,0.1-16.8-6.3s-0.1-13.9,6.3-16.8
		C658.6,396.2,659.1,396,659.5,395.9z"/>
	<path class="st3" d="M766.4,256.7c0,0-23.1-11.3-32,10.9c-4.9,12.5-17.5,43-23.7,61.7c0,0.1-0.1,0.2-0.2,0.3
		c-1.7,2.5-2.6,5.4-2.6,8.4c0,0.2,0,0.4-0.1,0.6c0,0,25.4,4.9,32.9,18.2l3-3.2l0.5-2.3L766.4,256.7z"/>
	<path class="st3" d="M850.4,447.9c-53.1,11-123.6-7.9-123.6-7.9l18.8-81.4l-6.7-85.2c-0.8-10.4,5.1-20.2,14.4-23.7l12.8-4.8
		l10.5-15.1l30.1,1l12,15.8l9.5,5l20.6,10.9h0.1l0,0l-6.5,62.7l-3.9,37.8c0,0,11.8,42.5,9.4,48.1c-2.4,5.6-0.3,2.9,0.3,5.9
		s2.4,3.2,2.7,9.1C851.2,432.3,850.4,447.9,850.4,447.9z"/>
	<path class="st10" d="M817.9,184.6c-2.2-2.1,1.1-7.8,0.5-10.8c-0.7-3.4-4.5-3.5-5.4-6.9c-1-3.6-4.8-5.6-8.4-6.8
		c-9.2-2.9-18.9-3.4-28.3-1.3c-4.2,1-8.3,2.3-12.3,3.8c-2.8,1-0.1-1.7-2.9-0.7c-1,0.2-2,0.8-2.6,1.7c-0.5,0.9,0.2,2.4,1.2,2.3
		c-3.4,1.5-6.8,3-10.1,4.5c1.9,2,3.8,4,5.7,6c-2.7-0.8-5.6,2.4-4.5,5c0.9,1.7,2.5,2.8,4.4,3c3,0.6,0.7,3.5,3.8,3.4
		s24.7-6.4,26.2-3.7c1.1,1.9,1,4.5,2.5,6.1c2,2,5.4,1.3,7.9,0s5-3.1,7.8-2.8c2.9,0.3,5.1,5.7,5.9,8.6c0.7,2.9,0.3,5.9-0.2,8.8
		c-0.6,3.8-6.6,7.7-7.2,11.5c6.7,1.9,13.9-4,16.5-14.3C818.1,195.4,822.5,189.1,817.9,184.6z"/>
	<circle class="st3" cx="633.8" cy="415" r="29.8"/>
	<path class="st6" d="M629.7,430.5c-1,0-2-0.5-2.6-1.3l-8.1-10.8c-1.1-1.5-0.8-3.5,0.7-4.6s3.5-0.8,4.6,0.7l5.3,7.1l13.6-20.5
		c1-1.5,3.1-1.9,4.6-0.9s1.9,3.1,0.9,4.6L632.5,429C631.9,429.9,630.9,430.4,629.7,430.5C629.8,430.5,629.7,430.5,629.7,430.5z"/>
	<path class="st11" d="M954.4,723.8c0,0.7-0.5,1.2-1.2,1.2l0,0H672.9c-0.7,0-1.2-0.5-1.2-1.2s0.5-1.2,1.2-1.2h280.3
		C953.8,722.6,954.4,723.1,954.4,723.8L954.4,723.8z"/>
</g>
</svg>
